<?xml version="1.0" encoding="UTF-8" standalone="no"?>
<!-- Uploaded to: SVG Repo, www.svgrepo.com, Generator: SVG Repo Mixer Tools -->

<svg
   height="621.97107"
   width="804.44434"
   version="1.1"
   id="_x32_"
   viewBox="0 0 514.84438 398.06148"
   xml:space="preserve"
   sodipodi:docname="flight.svg"
   inkscape:version="1.3 (0e150ed6c4, 2023-07-21)"
   xmlns:inkscape="http://www.inkscape.org/namespaces/inkscape"
   xmlns:sodipodi="http://sodipodi.sourceforge.net/DTD/sodipodi-0.dtd"
   xmlns="http://www.w3.org/2000/svg"
   xmlns:svg="http://www.w3.org/2000/svg"><defs
   id="defs1"><pattern
     id="EMFhbasepattern"
     patternUnits="userSpaceOnUse"
     width="6"
     height="6"
     x="0"
     y="0" /></defs><sodipodi:namedview
   id="namedview1"
   pagecolor="#505050"
   bordercolor="#eeeeee"
   borderopacity="1"
   inkscape:showpageshadow="0"
   inkscape:pageopacity="0"
   inkscape:pagecheckerboard="0"
   inkscape:deskcolor="#505050"
   inkscape:zoom="0.2175"
   inkscape:cx="1581.6092"
   inkscape:cy="719.54023"
   inkscape:window-width="1920"
   inkscape:window-height="1009"
   inkscape:window-x="1072"
   inkscape:window-y="826"
   inkscape:window-maximized="1"
   inkscape:current-layer="g1" />&#10;<style
   type="text/css"
   id="style1">&#10;	.st0{fill:#000000;}&#10;</style>&#10;<g
   id="g1"
   transform="matrix(-1,0,0,1,513.53805,-78.732939)"
   style="fill:#ffffff">&#10;	&#10;<path
   class="st0"
   d="m 508.24319,206.41681 c -5.46422,-5.99739 -13.98407,-8.13171 -21.63579,-5.42974 l -59.37011,18.87684 c -11.30188,4.00217 -23.72577,3.43503 -34.62916,-1.57087 l -69.7745,-31.86629 58.88331,-82.48695 c 4.54917,-4.971867 5.2503,-12.407557 1.64875,-18.146237 -3.57788,-5.71431 -10.56587,-8.35526 -17.02856,-6.44474 L 246.65337,135.72784 270.55475,146.65732 254.5502,155.20836 229.54207,143.78564 122.29202,94.771773 C 63.056658,67.611133 15.684248,78.329453 1.5210981,109.23687 -12.641804,140.15328 29.438678,157.90152 60.344068,172.06372 l 107.065012,49.16293 61.29606,241.21023 c 2.11927,8.92794 10.41266,15.00383 19.61806,14.30257 9.15609,-0.71193 16.42379,-7.95617 17.17466,-17.13984 l 29.09742,-180.01094 127.11298,26.31206 c 48.71269,7.38446 51.92134,12.21482 68.16552,-22.84097 l 21.81876,-54.60619 c 3.38904,-7.36436 2.03655,-16.05196 -3.44935,-22.03676 z"
   id="path1"
   style="fill:#ffffff"
   sodipodi:nodetypes="cccccccccccccccccccccccc" /></g>&#10;</svg>
